<mxfile host="app.diagrams.net" modified="2024-05-11T08:17:09.916Z" agent="Mozilla/5.0 (Macintosh; Intel Mac OS X 10_15_7) AppleWebKit/537.36 (KHTML, like Gecko) Chrome/121.0.0.0 Safari/537.36" version="24.3.1" etag="IiySLPxa4O8wBp56swTI" type="github">
  <diagram name="第 1 页" id="qbsFgxNV_fi_hqhI19OQ">
    <mxGraphModel>
      <root>
        <mxCell id="0" />
        <mxCell id="1" parent="0" />
      </root>
    </mxGraphModel>
  </diagram>
</mxfile>
